<svg aria-hidden="true" style="position: absolute; width: 0; height: 0; overflow: hidden;" version="1.1" xmlns="http://www.w3.org/2000/svg" xmlns:xlink="http://www.w3.org/1999/xlink">
<defs>
<symbol id="icon-boussole" viewBox="0 0 32 32">
<title>boussole</title>
<path fill="#003767" style="fill: var(--color1, #003767)" d="M14.205 17.616l3.194-3.238c0.799-0.806 3.992 7.273 3.992 7.273s-7.981-3.23-7.186-4.036zM24.585 24.889s-3.594-10.108-5.589-12.122-11.977-5.662-11.977-5.662 3.593 10.108 5.589 12.122 11.978 5.662 11.978 5.662zM15.802 32c0.058 0.001 0.126 0.001 0.194 0.001 8.839 0 16.004-7.165 16.004-16.004s-7.165-16.004-16.004-16.004c-8.839 0-16.004 7.165-16.004 16.003v0c-0 0.029-0 0.062-0 0.096 0 8.751 7.067 15.852 15.805 15.907l0.005 0zM15.802 29.715c-0.050 0.001-0.108 0.001-0.167 0.001-7.576 0-13.718-6.142-13.718-13.718s6.142-13.718 13.718-13.718c7.576 0 13.717 6.141 13.718 13.717v0c0 0.025 0 0.055 0 0.085 0 7.501-6.058 13.587-13.547 13.633l-0.004 0z"></path>
</symbol>
<symbol id="icon-btn-cercle-fleche-bas" viewBox="0 0 32 32">
<title>btn-cercle-fleche-bas</title>
<path d="M31.787 16c0 8.719-7.068 15.787-15.787 15.787s-15.787-7.068-15.787-15.787c0-8.719 7.068-15.787 15.787-15.787s15.787 7.068 15.787 15.787z"></path>
<path fill="currentColor" d="M20.409 17.564l-1.209-1.138-2.276 2.062v-8.249h-1.849v8.249l-2.276-2.062-1.209 1.138 4.409 4.196z"></path>
</symbol>
<symbol id="icon-btn-cercle-fleche-droite" viewBox="0 0 32 32">
<title>btn-cercle-fleche-droite</title>
<path d="M31.787 16c0 8.719-7.068 15.787-15.787 15.787s-15.787-7.068-15.787-15.787c0-8.719 7.068-15.787 15.787-15.787s15.787 7.068 15.787 15.787z"></path>
<path fill="currentColor" d="M17.564 11.591l-1.138 1.209 2.062 2.276h-8.249v1.849h8.249l-2.062 2.276 1.138 1.209 4.196-4.409z"></path>
</symbol>
<symbol id="icon-btn-cercle-fleche-gauche" viewBox="0 0 32 32">
<title>btn-cercle-fleche-gauche</title>
<path d="M31.787 16c0 8.719-7.068 15.787-15.787 15.787s-15.787-7.068-15.787-15.787c0-8.719 7.068-15.787 15.787-15.787s15.787 7.068 15.787 15.787z"></path>
<path fill="currentColor" d="M14.436 20.409l1.138-1.209-2.062-2.276h8.249v-1.849h-8.249l2.062-2.276-1.138-1.209-4.196 4.409z"></path>
</symbol>
<symbol id="icon-btn-cercle-fleche-haut" viewBox="0 0 32 32">
<title>btn-cercle-fleche-haut</title>
<path d="M31.787 16c0 8.719-7.068 15.787-15.787 15.787s-15.787-7.068-15.787-15.787c0-8.719 7.068-15.787 15.787-15.787s15.787 7.068 15.787 15.787z"></path>
<path fill="currentColor" d="M11.591 14.436l1.209 1.138 2.276-2.062v8.249h1.849v-8.249l2.276 2.062 1.209-1.138-4.409-4.196z"></path>
</symbol>
<symbol id="icon-btn-cercle-play-video" viewBox="0 0 32 32">
<title>btn-cercle-play-video</title>
<path d="M32 16c0 8.837-7.163 16-16 16s-16-7.163-16-16c0-8.837 7.163-16 16-16s16 7.163 16 16z"></path>
<path fill="currentColor" d="M13.369 22.542c-0.142 0-0.284-0.071-0.427-0.142-0.284-0.142-0.498-0.498-0.498-0.782v-11.236c0-0.356 0.213-0.64 0.498-0.782s0.64-0.142 0.924 0l9.031 5.689c0.284 0.142 0.427 0.427 0.427 0.782 0 0.284-0.142 0.64-0.427 0.782l-9.031 5.547c-0.142 0.071-0.356 0.142-0.498 0.142zM14.293 12.018v7.964l6.4-3.911-6.4-4.053z"></path>
</symbol>
<symbol id="icon-btn-fleche-droite" viewBox="0 0 58 32">
<title>btn-fleche-droite</title>
<path d="M58.4 16l-23.467-16v12.533h-34.933v6.933h34.933v12.533z"></path>
</symbol>
<symbol id="icon-btn-slider" viewBox="0 0 32 32">
<title>btn-slider</title>
<path style="fill: var(--color2, #fff)" d="M32 16c0 8.837-7.163 16-16 16s-16-7.163-16-16c0-8.837 7.163-16 16-16s16 7.163 16 16z"></path>
<path fill="currentColor" style="fill: var(--color1, #003767)" d="M11.449 10.667l-4.978 5.262 4.978 5.262 1.138-1.28-3.84-3.982 3.84-3.982z"></path>
<path fill="currentColor" style="fill: var(--color1, #003767)" d="M20.124 10.809l-1.138 1.28 3.84 3.982-3.84 3.982 1.138 1.28 4.978-5.262z"></path>
</symbol>
<symbol id="icon-Logo-X-blanc" viewBox="0 0 27 32">
<title>Logo-X-blanc</title>
<path fill="#fff" style="fill: var(--color2, #fff)" d="M11.777 10.677h0.506c0.149 0 0.268-0.119 0.268-0.268v-4.58h1.665v4.58c0 0.149 0.119 0.268 0.268 0.268h0.506c0.149 0 0.268-0.119 0.268-0.268v-8.535c0-1.041-0.833-1.874-1.874-1.874s-1.874 0.862-1.874 1.874v8.535c0 0.149 0.149 0.268 0.268 0.268zM12.61 1.874c0-0.476 0.357-0.833 0.833-0.833 0.446 0 0.803 0.357 0.803 0.833h0.030v2.944h-1.665v-2.944z"></path>
<path fill="#fff" style="fill: var(--color2, #fff)" d="M13.383 21.323c-1.041 0-1.874 0.862-1.874 1.874v8.535c0 0.149 0.149 0.268 0.268 0.268h0.506c0.149 0 0.268-0.119 0.268-0.268v-4.58h1.665v4.58c0 0.149 0.119 0.268 0.268 0.268h0.506c0.149 0 0.268-0.119 0.268-0.268v-8.535c0-1.041-0.833-1.874-1.874-1.874zM14.275 26.141h-1.665v-2.944c0-0.476 0.357-0.833 0.833-0.833 0.446 0 0.803 0.357 0.803 0.833h0.030v2.944z"></path>
<path fill="#fff" style="fill: var(--color2, #fff)" d="M1.665 22.335h0.506c0.149 0 0.268-0.119 0.268-0.238v-0.862c0.773-0.208 1.338-0.922 1.338-1.755v-6.929c0-1.041-0.833-1.844-1.874-1.844-1.011 0-1.844 0.833-1.844 1.844v6.929c0 0.833 0.565 1.517 1.338 1.755v0.862c0 0.119 0.119 0.238 0.268 0.238zM1.1 19.48v-6.929c0-0.476 0.387-0.833 0.833-0.833s0.803 0.357 0.803 0.833v6.929c0 0.446-0.357 0.803-0.803 0.803-0.476 0-0.833-0.357-0.833-0.803z"></path>
<path fill="#fff" style="fill: var(--color2, #fff)" d="M26.825 2.736l-0.178-0.149-13.234 13.234-13.264-13.234-0.149 0.149 13.264 13.264-13.264 13.234 0.149 0.178 13.264-13.264 13.234 13.264 0.178-0.178-13.264-13.234z"></path>
<path fill="#fff" style="fill: var(--color2, #fff)" d="M23.792 10.647h-0.506c-0.149 0-0.268 0.149-0.268 0.268v8.565c0 1.041 0.833 1.844 1.874 1.844 1.011 0 1.844-0.803 1.844-1.844v-8.565c0-0.119-0.119-0.238-0.268-0.268h-0.506c-0.149 0-0.268 0.149-0.268 0.268v8.565c0 0.476-0.357 0.833-0.803 0.833-0.476 0-0.833-0.387-0.833-0.833v-8.565c0-0.149-0.119-0.268-0.268-0.268z"></path>
</symbol>
<symbol id="icon-reseausociaux-facebook" viewBox="0 0 32 32">
<title>Facebook</title>
<path fill="#fff" style="fill: var(--color2, #fff)" d="M14.112 11.84v1.632h-1.44v2.528h1.44c0 3.232 0 7.2 0 7.2h2.976c0 0 0-3.968 0-7.2h1.984l0.32-2.528h-2.24v-1.536c0-0.64 0.384-0.736 0.64-0.736 0.288 0 1.632 0 1.632 0v-2.432h-2.24c-2.528 0-3.072 1.888-3.072 3.072z"></path>
<path fill="#003767" style="fill: var(--color1, #003767)" d="M16 1.568c-7.936 0-14.432 6.496-14.432 14.432s6.496 14.432 14.432 14.432 14.432-6.496 14.432-14.432-6.496-14.432-14.432-14.432zM19.424 11.2c0 0-1.344 0-1.632 0-0.256 0-0.64 0.096-0.64 0.736v1.536h2.24l-0.32 2.528h-1.984c0 3.232 0 7.2 0 7.2h-2.976c0 0 0-3.968 0-7.2h-1.44v-2.528h1.44v-1.632c0-1.184 0.544-3.072 3.072-3.072h2.24c0 0 0 2.432 0 2.432z"></path>
</symbol>
<symbol id="icon-reseausociaux-instagram" viewBox="0 0 32 32">
<title>Instagram</title>
<path fill="#003767" style="fill: var(--color1, #003767)" d="M16 0.704c-8.512 0-15.296 6.88-15.296 15.296s6.88 15.296 15.296 15.296 15.296-6.88 15.296-15.296-6.784-15.296-15.296-15.296zM23.552 19.168c0 0.768-0.192 1.344-0.384 1.824s-0.48 0.96-0.864 1.344-0.864 0.672-1.344 0.864-1.056 0.288-1.824 0.384c-0.768 0-1.056 0-3.168 0s-2.304 0-3.168 0c-0.768 0-1.344-0.192-1.824-0.384s-0.96-0.48-1.344-0.864-0.672-0.864-0.864-1.344-0.288-1.056-0.384-1.824c0-0.768 0-1.056 0-3.168s0-2.304 0-3.168c0-0.768 0.192-1.344 0.384-1.824s0.48-0.96 0.864-1.344 0.864-0.672 1.344-0.864 1.056-0.288 1.824-0.384c0.768 0 1.056 0 3.168 0s2.304 0 3.168 0c0.768 0 1.344 0.192 1.824 0.384s0.96 0.48 1.344 0.864 0.672 0.864 0.864 1.344 0.288 1.056 0.384 1.824c0 0.768 0 1.056 0 3.168s0 2.304 0 3.168z"></path>
<path fill="#d83276" style="fill: var(--color3, #d83276)" d="M18.496 16c0 1.378-1.117 2.496-2.496 2.496s-2.496-1.117-2.496-2.496c0-1.379 1.117-2.496 2.496-2.496s2.496 1.117 2.496 2.496z"></path>
<path fill="#003767" style="fill: var(--color1, #003767)" d="M21.92 11.52c-0.096-0.384-0.288-0.576-0.576-0.864s-0.48-0.384-0.864-0.576c-0.288-0.096-0.672-0.192-1.44-0.288-0.768 0-1.056 0-3.072 0s-2.304 0-3.072 0-1.152 0.192-1.44 0.288c-0.384 0.096-0.576 0.288-0.864 0.576s-0.384 0.48-0.576 0.864c-0.096 0.288-0.192 0.672-0.288 1.44 0 0.768 0 1.056 0 3.072s0 2.304 0 3.072 0.192 1.152 0.288 1.44c0.096 0.384 0.288 0.576 0.576 0.864s0.48 0.384 0.864 0.576c0.288 0.096 0.672 0.192 1.44 0.288 0.768 0 1.056 0 3.072 0s2.304 0 3.072 0 1.152-0.192 1.44-0.288c0.384-0.096 0.576-0.288 0.864-0.576s0.384-0.48 0.576-0.864c0.096-0.288 0.192-0.672 0.288-1.44 0-0.768 0-1.056 0-3.072s0-2.304 0-3.072c-0.096-0.768-0.192-1.152-0.288-1.44z"></path>
<path fill="#003767" style="fill: var(--color1, #003767)" d="M19.904 16c0 2.156-1.748 3.904-3.904 3.904s-3.904-1.748-3.904-3.904c0-2.156 1.748-3.904 3.904-3.904s3.904 1.748 3.904 3.904z"></path>
<path fill="#fff" style="fill: var(--color2, #fff)" d="M23.168 11.040c-0.192-0.48-0.48-0.96-0.864-1.344s-0.864-0.672-1.344-0.864-1.056-0.288-1.824-0.384c-0.768 0-1.056 0-3.168 0s-2.304 0-3.168 0c-0.768 0-1.344 0.192-1.824 0.384s-0.96 0.48-1.344 0.864-0.672 0.864-0.864 1.344-0.288 1.056-0.384 1.824c0 0.768 0 1.056 0 3.168s0 2.304 0 3.168c0 0.768 0.192 1.344 0.384 1.824s0.48 0.96 0.864 1.344 0.864 0.672 1.344 0.864 1.056 0.288 1.824 0.384c0.768 0 1.056 0 3.168 0s2.304 0 3.168 0c0.768 0 1.344-0.192 1.824-0.384s0.96-0.48 1.344-0.864 0.672-0.864 0.864-1.344 0.288-1.056 0.384-1.824c0-0.768 0-1.056 0-3.168s0-2.304 0-3.168c-0.096-0.768-0.192-1.344-0.384-1.824zM22.112 19.072c0 0.768-0.192 1.152-0.288 1.44-0.096 0.384-0.288 0.576-0.576 0.864s-0.48 0.384-0.768 0.576c-0.288 0.096-0.672 0.192-1.44 0.288-0.768 0-1.056 0-3.072 0s-2.304 0-3.072 0-1.152-0.192-1.44-0.288c-0.384-0.096-0.576-0.288-0.864-0.576s-0.384-0.48-0.576-0.864c-0.096-0.288-0.192-0.672-0.288-1.44 0-0.768 0-1.056 0-3.072s0-2.304 0-3.072 0.192-1.152 0.288-1.44c0.096-0.384 0.288-0.576 0.576-0.864s0.48-0.384 0.864-0.576c0.288-0.096 0.672-0.192 1.44-0.288 0.768 0 1.056 0 3.072 0s2.304 0 3.072 0 1.152 0.192 1.44 0.288c0.384 0.096 0.576 0.288 0.864 0.576s0.384 0.48 0.576 0.864c0.096 0.288 0.192 0.672 0.288 1.44 0 0.768 0 1.056 0 3.072s0 2.304-0.096 3.072z"></path>
<path fill="#fff" style="fill: var(--color2, #fff)" d="M16 12.096c-2.112 0-3.904 1.728-3.904 3.904s1.696 3.904 3.904 3.904 3.904-1.696 3.904-3.904-1.792-3.904-3.904-3.904zM16 18.496c-1.44 0-2.496-1.152-2.496-2.496s1.152-2.496 2.496-2.496 2.496 1.152 2.496 2.496-1.056 2.496-2.496 2.496z"></path>
<path fill="#fff" style="fill: var(--color2, #fff)" d="M20 11.040c-0.48 0-0.864 0.384-0.864 0.864s0.384 0.864 0.864 0.864 0.864-0.384 0.864-0.864c0.096-0.384-0.384-0.864-0.864-0.864z"></path>
</symbol>
<symbol id="icon-reseausociaux-pinterest" viewBox="0 0 32 32">
<title>Pinterest</title>
<path fill="#fff" style="fill: var(--color2, #fff)" d="M16.736 8.48c-4.128 0-6.176 2.912-6.176 5.344 0 1.504 0.576 2.816 1.792 3.296 0.192 0.096 0.384 0 0.48-0.192 0-0.192 0.096-0.576 0.192-0.672 0.096-0.192 0-0.288-0.096-0.48-0.384-0.384-0.576-0.928-0.576-1.696 0-2.176 1.6-4.128 4.224-4.128 2.336 0 3.584 1.408 3.584 3.296 0 2.528-1.12 4.608-2.72 4.608-0.928 0-1.6-0.736-1.408-1.696 0.288-1.12 0.736-2.272 0.736-3.104 0-0.736-0.384-1.312-1.12-1.312-0.928 0-1.696 0.928-1.696 2.272 0 0.832 0.288 1.408 0.288 1.408s-0.928 4.032-1.12 4.704c-0.384 1.408-0.096 3.104 0 3.296 0 0.096 0.192 0.096 0.192 0.096 0.096-0.096 1.216-1.504 1.6-2.816 0.096-0.384 0.576-2.336 0.576-2.336 0.288 0.576 1.216 1.024 2.080 1.024 2.816 0 4.704-2.528 4.704-5.92-0.064-2.656-2.24-4.992-5.536-4.992z"></path>
<path fill="#003767" style="fill: var(--color1, #003767)" d="M16 0.96c-8.256 0-15.040 6.784-15.040 15.040s6.784 15.040 15.040 15.040 15.040-6.784 15.040-15.040-6.784-15.040-15.040-15.040zM17.6 19.392c-0.928 0-1.792-0.48-2.080-1.024 0 0-0.48 1.984-0.576 2.336-0.384 1.312-1.504 2.72-1.6 2.816-0.192 0-0.288 0-0.288-0.096 0-0.192-0.288-1.888 0-3.296 0.192-0.672 1.12-4.704 1.12-4.704s-0.288-0.576-0.288-1.408c0-1.312 0.736-2.272 1.696-2.272 0.736 0 1.12 0.576 1.12 1.312s-0.48 1.984-0.736 3.104c-0.192 0.928 0.48 1.696 1.408 1.696 1.6 0 2.72-2.080 2.72-4.608 0-1.888-1.312-3.296-3.584-3.296-2.624 0-4.224 1.984-4.224 4.128 0 0.736 0.192 1.312 0.576 1.696 0.192 0.192 0.192 0.288 0.096 0.48 0 0.192-0.096 0.576-0.192 0.672-0.096 0.192-0.288 0.288-0.48 0.192-1.216-0.48-1.792-1.792-1.792-3.296 0-2.432 2.080-5.344 6.208-5.344 3.296 0 5.44 2.336 5.44 4.992 0.064 3.36-1.824 5.92-4.544 5.92z"></path>
</symbol>
<symbol id="icon-reseausociaux-twitter" viewBox="0 0 32 32">
<title>Twitter</title>
<path fill="#fff" style="fill: var(--color2, #fff)" d="M23.072 10.144c-0.544 0.352-1.28 0.64-1.92 0.736-0.544-0.544-1.376-0.928-2.208-0.928-1.664 0-3.040 1.376-3.040 3.040 0 0.192 0 0.448 0.096 0.64-2.56-0.096-4.768-1.28-6.24-3.136-0.192 0.448-0.384 1.024-0.384 1.568 0 1.024 0.544 1.952 1.376 2.496-0.544 0-0.992-0.192-1.376-0.384 0 1.472 1.024 2.656 2.4 2.944-0.288 0.096-0.544 0.096-0.832 0.096-0.16 0-0.352-0.096-0.544-0.096 0.448 1.184 1.568 2.112 2.848 2.112-1.024 0.832-2.4 1.28-3.776 1.28-0.288 0-0.448 0-0.736 0 1.312 0.928 2.848 1.376 4.608 1.376 5.504 0 8.544-4.576 8.544-8.544 0-0.096 0-0.288 0-0.384 0.544-0.352 1.088-0.928 1.664-1.6-0.576 0.16-1.12 0.352-1.76 0.448 0.544-0.384 1.088-0.928 1.28-1.664z"></path>
<path fill="#003767" style="fill: var(--color1, #003767)" d="M16 1.28c-8.096 0-14.72 6.624-14.72 14.72s6.624 14.72 14.72 14.72 14.72-6.624 14.72-14.72-6.624-14.72-14.72-14.72zM21.888 12.96c0 0.096 0 0.288 0 0.384 0 3.968-3.040 8.544-8.544 8.544-1.76 0-3.296-0.448-4.608-1.376 0.288 0 0.448 0 0.736 0 1.376 0 2.752-0.448 3.776-1.28-1.28 0-2.4-0.928-2.848-2.112 0.192 0 0.384 0.096 0.544 0.096 0.288 0 0.544 0 0.832-0.096-1.376-0.288-2.4-1.472-2.4-2.944 0.384 0.192 0.832 0.384 1.376 0.384-0.832-0.544-1.376-1.472-1.376-2.496 0-0.544 0.192-1.12 0.384-1.568 1.472 1.856 3.68 3.040 6.24 3.136-0.096-0.192-0.096-0.448-0.096-0.64 0-1.664 1.376-3.040 3.040-3.040 0.832 0 1.664 0.384 2.208 0.928 0.64-0.096 1.376-0.384 1.92-0.736-0.192 0.736-0.736 1.28-1.28 1.664 0.64-0.096 1.184-0.288 1.76-0.448-0.576 0.672-1.12 1.248-1.664 1.6z"></path>
</symbol>
<symbol id="icon-vague-eau" viewBox="0 0 94 32">
<title>vague-eau</title>
<path fill="#4cabe2" style="fill: var(--color4, #4cabe2)" d="M81.318 8.028c-3.388 0-5.114-1.591-6.638-2.994-1.375-1.267-2.461-2.267-4.783-2.267s-3.408 1-4.783 2.267c-1.523 1.403-3.249 2.994-6.638 2.994s-5.115-1.591-6.639-2.994c-1.375-1.267-2.461-2.267-4.782-2.267s-3.407 1-4.783 2.267c-1.523 1.403-3.249 2.994-6.638 2.994s-5.114-1.591-6.637-2.994c-1.375-1.267-2.461-2.267-4.782-2.267s-3.408 1-4.782 2.267c-1.524 1.403-3.25 2.994-6.638 2.994s-5.116-1.591-6.639-2.994c-1.375-1.267-2.461-2.267-4.783-2.267-0.748-0.020-1.347-0.632-1.347-1.383s0.599-1.363 1.346-1.383l0.002-0c3.388 0 5.115 1.591 6.638 2.993 1.376 1.268 2.462 2.268 4.784 2.268s3.407-1 4.782-2.268c1.523-1.402 3.249-2.993 6.638-2.993s5.115 1.591 6.637 2.994c1.375 1.267 2.461 2.267 4.782 2.267s3.408-1 4.783-2.268c1.523-1.402 3.249-2.993 6.638-2.993s5.115 1.591 6.638 2.993c1.375 1.268 2.462 2.268 4.783 2.268s3.408-1 4.783-2.268c1.523-1.402 3.249-2.993 6.638-2.993s5.115 1.591 6.639 2.993c1.375 1.268 2.461 2.268 4.782 2.268s3.409-1 4.784-2.268c1.524-1.402 3.25-2.993 6.64-2.993 0.748 0.020 1.347 0.632 1.347 1.383s-0.599 1.363-1.346 1.383l-0.002 0c-2.322 0-3.409 1-4.785 2.267-1.521 1.403-3.251 2.994-6.639 2.994zM81.318 20.013c-3.388 0-5.114-1.59-6.638-2.993-1.375-1.267-2.461-2.267-4.783-2.267s-3.408 1-4.783 2.267c-1.523 1.403-3.249 2.993-6.638 2.993s-5.115-1.59-6.639-2.993c-1.375-1.267-2.461-2.267-4.782-2.267s-3.407 1-4.783 2.267c-1.523 1.403-3.249 2.993-6.638 2.993s-5.114-1.59-6.637-2.993c-1.375-1.267-2.461-2.267-4.782-2.267s-3.408 1-4.782 2.267c-1.524 1.403-3.25 2.993-6.638 2.993s-5.116-1.59-6.639-2.993c-1.375-1.267-2.461-2.267-4.783-2.267-0.748-0.020-1.347-0.632-1.347-1.383s0.599-1.363 1.346-1.383l0.002-0c3.388 0 5.115 1.59 6.638 2.993 1.376 1.267 2.462 2.268 4.784 2.268s3.407-1.001 4.782-2.268c1.523-1.403 3.249-2.993 6.638-2.993s5.115 1.59 6.637 2.993c1.375 1.267 2.461 2.268 4.782 2.268s3.408-1.001 4.783-2.268c1.523-1.403 3.249-2.993 6.638-2.993s5.115 1.59 6.638 2.993c1.375 1.267 2.462 2.268 4.783 2.268s3.408-1.001 4.783-2.268c1.523-1.403 3.249-2.993 6.638-2.993s5.115 1.59 6.639 2.993c1.375 1.267 2.461 2.268 4.782 2.268s3.409-1.001 4.784-2.268c1.524-1.403 3.25-2.993 6.64-2.993 0.748 0.020 1.347 0.632 1.347 1.383s-0.599 1.363-1.346 1.383l-0.002 0c-2.322 0-3.409 1-4.785 2.267-1.521 1.403-3.251 2.993-6.639 2.993zM81.318 31.999c-3.388 0-5.114-1.591-6.638-2.993-1.375-1.267-2.461-2.268-4.783-2.268s-3.408 1.001-4.783 2.267c-1.523 1.403-3.249 2.994-6.638 2.994s-5.115-1.591-6.639-2.994c-1.375-1.266-2.461-2.267-4.782-2.267s-3.407 1.001-4.783 2.267c-1.523 1.403-3.249 2.994-6.638 2.994s-5.114-1.591-6.637-2.994c-1.375-1.266-2.461-2.267-4.782-2.267s-3.408 1.001-4.782 2.267c-1.522 1.403-3.243 2.995-6.632 2.995s-5.116-1.591-6.639-2.994c-1.375-1.266-2.461-2.267-4.783-2.267-0.764 0-1.383-0.619-1.383-1.383s0.619-1.383 1.383-1.383v0c3.388 0 5.115 1.59 6.638 2.993 1.376 1.267 2.462 2.268 4.784 2.268s3.407-1.001 4.782-2.268c1.523-1.403 3.249-2.993 6.638-2.993s5.115 1.59 6.637 2.993c1.375 1.267 2.461 2.268 4.782 2.268s3.408-1.001 4.783-2.268c1.523-1.403 3.249-2.993 6.638-2.993s5.115 1.59 6.638 2.993c1.375 1.267 2.462 2.268 4.783 2.268s3.408-1.001 4.783-2.268c1.523-1.403 3.249-2.993 6.638-2.993s5.115 1.59 6.639 2.993c1.375 1.267 2.461 2.268 4.782 2.268s3.409-1.001 4.784-2.268c1.524-1.403 3.25-2.993 6.64-2.993 0.764 0 1.383 0.619 1.383 1.383s-0.619 1.383-1.383 1.383v0c-2.322 0-3.409 1.001-4.785 2.268-1.528 1.401-3.257 2.993-6.646 2.993z"></path>
</symbol>
<symbol id="icon-aires-communes" viewBox="0 0 32 32">
<title>aires-communes</title>
<path d="M21.839 6.4h-1.34c-1.324 0-2.474 0.898-2.795 2.183l-0.787 3.15h10.965l-0.788-3.15c-0.321-1.285-1.47-2.183-2.795-2.183h-1.394c-0.274-3.574-3.264-6.4-6.907-6.4h-3.733c-5.293 0-9.6 4.307-9.6 9.6v19.2h-2.667v3.2h6.4v-3.2h-2.667v-19.2c0-4.705 3.828-8.533 8.533-8.533h3.733c3.055 0 5.569 2.348 5.839 5.333zM26.061 8.841l0.457 1.826h-8.235l0.456-1.826c0.203-0.809 0.927-1.374 1.762-1.374h3.8c0.834 0 1.558 0.565 1.761 1.374zM5.333 29.867v1.067h-4.267v-1.067h4.267z"></path>
<path d="M30.659 14.4h-1.586c-0.739 0-1.34 0.602-1.34 1.341v0.275c-1.789 0.151-3.2 1.654-3.2 3.482v1.303h-6.347c-0.911 0-1.653 0.742-1.653 1.653v7.947h1.067v1.6h3.2v-1.6h6.933v1.6h3.2v-1.6h1.067v-14.659c0-0.739-0.602-1.341-1.341-1.341zM25.6 19.497c0-1.239 0.933-2.265 2.133-2.412v3.715h-2.133v-1.303zM19.733 30.933h-1.067v-0.533h1.067v0.533zM29.867 30.933h-1.067v-0.533h1.067v0.533zM30.933 29.333h-13.333v-6.88c0-0.323 0.263-0.587 0.587-0.587h12.747v7.467zM28.8 20.8v-5.059c0-0.151 0.123-0.274 0.274-0.274h1.586c0.151 0 0.274 0.123 0.274 0.274v5.059h-2.133z"></path>
</symbol>
<symbol id="icon-architecture" viewBox="0 0 32 32">
<title>architecture</title>
<path d="M28.315 22.583c-0.175-0.073-0.378-0.033-0.512 0.102l-5.133 5.133c-0.134 0.134-0.174 0.336-0.102 0.512s0.244 0.29 0.434 0.29h5.133c0.259 0 0.47-0.21 0.47-0.47v-5.133c-0-0.19-0.114-0.361-0.29-0.434zM24.136 27.68l3.529-3.529v3.529h-3.529z"></path>
<path d="M31.71 15.054c-0.175-0.073-0.378-0.033-0.512 0.102l-1.407 1.407v-9.564c0-0.259-0.21-0.47-0.47-0.47h-3.609l1.31-1.31c0-0 0-0 0.001-0.001l1.262-1.262c0.27-0.27 0.419-0.63 0.419-1.013s-0.149-0.742-0.419-1.013l-1.46-1.46c-0.27-0.27-0.63-0.419-1.013-0.419s-0.742 0.149-1.013 0.419l-6.058 6.058h-14.579v-4.647c0-0.259-0.21-0.47-0.47-0.47-2.037 0-3.694 1.657-3.694 3.694v19.949c0 0.035 0.004 0.068 0.011 0.101 0.065 0.864 0.439 1.667 1.064 2.277 0.668 0.651 1.55 1.010 2.483 1.010h14.352l-2.703 2.703c-0.134 0.134-0.175 0.336-0.102 0.512s0.244 0.29 0.434 0.29h15.991c0.259 0 0.47-0.21 0.47-0.47v-15.991c0-0.19-0.114-0.361-0.29-0.434zM25.465 1.135c0.192-0.192 0.505-0.192 0.697 0l1.46 1.46c0.192 0.192 0.192 0.505 0 0.697l-0.931 0.931-2.157-2.157 0.931-0.931zM23.87 2.73l2.157 2.156-0.862 0.862-2.156-2.156 0.862-0.862zM31.061 20.766h-0.867c-0.259 0-0.47 0.21-0.47 0.47s0.21 0.47 0.47 0.47h0.867v1.415h-0.867c-0.259 0-0.47 0.21-0.47 0.47s0.21 0.47 0.47 0.47h0.867v1.415h-0.867c-0.259 0-0.47 0.21-0.47 0.47s0.21 0.47 0.47 0.47h0.867v1.415h-0.867c-0.259 0-0.47 0.21-0.47 0.47s0.21 0.47 0.47 0.47h0.867v2.24h-14.388l4.744-4.744c0.183-0.183 0.183-0.481 0-0.664-0.021-0.021-0.044-0.039-0.067-0.056-0.183-0.125-0.434-0.107-0.597 0.056l-1.904 1.904h-15.292c-1.425 0-2.571-1.112-2.616-2.534 0.003-0.089 0.010-0.178 0.021-0.265 0-0 0-0.001 0-0.002 0.005-0.042 0.012-0.083 0.019-0.124 0.001-0.005 0.002-0.009 0.002-0.014 0.007-0.037 0.014-0.073 0.022-0.11 0.002-0.010 0.005-0.020 0.007-0.030 0.007-0.031 0.015-0.061 0.023-0.092 0.004-0.017 0.009-0.033 0.014-0.049 0.007-0.024 0.014-0.048 0.022-0.071s0.016-0.047 0.024-0.070c0.006-0.016 0.011-0.033 0.017-0.049 0.011-0.031 0.024-0.061 0.036-0.091 0.004-0.009 0.007-0.017 0.011-0.026 0.016-0.038 0.033-0.075 0.050-0.111 0.001-0.002 0.001-0.003 0.002-0.005 0.367-0.76 1.074-1.327 1.922-1.503 0.002-0 0.005-0.001 0.007-0.002 0.039-0.008 0.078-0.015 0.118-0.021 0.007-0.001 0.013-0.002 0.020-0.003 0.036-0.005 0.072-0.010 0.108-0.014 0.010-0.001 0.020-0.003 0.030-0.004 0.035-0.003 0.070-0.006 0.105-0.008 0.011-0.001 0.022-0.002 0.033-0.002 0.046-0.002 0.092-0.003 0.139-0.003 0.259 0 0.47-0.21 0.47-0.47v-3.406c0-0.259-0.21-0.47-0.47-0.47s-0.47 0.21-0.47 0.47v2.965c-0.793 0.1-1.529 0.454-2.11 1.021-0.061 0.060-0.119 0.122-0.175 0.185v-17.49c0-1.359 0.989-2.491 2.285-2.715v14.155c0 0.259 0.21 0.47 0.47 0.47s0.47-0.21 0.47-0.47v-9.079h13.64l-2.596 2.597c-0.183 0.184-0.183 0.481 0 0.664s0.481 0.183 0.664 0l3.398-3.398c0-0 0-0 0-0l3.074-3.074 2.156 2.157-0.253 0.253c-0 0-0 0-0.001 0.001l-9.471 9.471-2.156-2.156 1.867-1.867c0.183-0.184 0.183-0.481 0-0.664s-0.481-0.183-0.664 0l-2.199 2.199c-0.012 0.012-0.023 0.024-0.033 0.037-0.003 0.004-0.007 0.009-0.010 0.013-0.007 0.009-0.013 0.018-0.019 0.027-0.003 0.005-0.007 0.011-0.010 0.016-0.005 0.009-0.010 0.018-0.015 0.027-0.003 0.006-0.006 0.012-0.008 0.018-0.004 0.009-0.008 0.019-0.012 0.028-0.001 0.003-0.003 0.006-0.004 0.010l-1.539 4.36c-0.008 0.023-0.014 0.047-0.019 0.071h-1.562c-0.259 0-0.47 0.21-0.47 0.47s0.21 0.47 0.47 0.47h13.007c0.259 0 0.47-0.21 0.47-0.47s-0.21-0.47-0.47-0.47h-9.332l2.864-1.011c0.002-0.001 0.005-0.002 0.007-0.003 0.011-0.004 0.022-0.009 0.033-0.014 0.004-0.002 0.009-0.004 0.013-0.006 0.011-0.006 0.022-0.012 0.033-0.018 0.004-0.002 0.007-0.004 0.011-0.006 0.011-0.007 0.022-0.015 0.033-0.024 0.003-0.002 0.005-0.004 0.008-0.006 0.013-0.011 0.026-0.022 0.038-0.034l9.665-9.665h4.078v10.034l-6.718 6.719c-0.183 0.183-0.183 0.481 0 0.664 0.011 0.011 0.023 0.022 0.036 0.032 0.086 0.070 0.191 0.105 0.296 0.105s0.21-0.035 0.296-0.105c0.012-0.010 0.024-0.021 0.036-0.032 0-0 0 0 0-0l8.263-8.263v4.144zM13.917 16.606l-1.345 0.475-0.896-0.896 0.475-1.345 1.767 1.767z"></path>
</symbol>
<symbol id="icon-fitness-centre" viewBox="0 0 32 32">
<title>fitness-centre</title>
<path d="M29.5 26.5h-1.5v-20.793l0.854-0.854c0.090-0.090 0.146-0.215 0.146-0.354s-0.056-0.263-0.146-0.354l-1.5-1.5c-0.090-0.090-0.215-0.146-0.354-0.146s-0.263 0.056-0.354 0.146l-4.5 4.5c-0.090 0.090-0.146 0.215-0.146 0.354s0.056 0.263 0.146 0.354l1.5 1.5c0.090 0.090 0.215 0.146 0.354 0.146s0.263-0.056 0.354-0.146l0.646-0.646v15.65c-0.416-0.367-0.971-0.837-1.641-1.355h0.141c0.276 0 0.5-0.224 0.5-0.5v0-6.502c-0-0.095-0.027-0.184-0.073-0.26l0.001 0.002-2.928-4.881v-4.862c0-0.828-0.672-1.5-1.5-1.5s-1.5 0.672-1.5 1.5v0 5.5c0 0.095 0.027 0.184 0.073 0.26l-0.001-0.002 2.928 4.881v3.361h-2.34c-0.367-0.187-0.669-0.332-0.956-0.457-3.421-1.521-7.119-2.543-9.203-2.543-0.001 0-0.002 0-0.003 0-2.484 0-4.497 2.013-4.497 4.497 0 1.412 0.651 2.672 1.669 3.496l0.008 0.007h-1.178c-0.276 0-0.5 0.224-0.5 0.5v0 1h-1.5c-0.828 0-1.5 0.672-1.5 1.5s0.672 1.5 1.5 1.5v0h1c0.828 0 1.5-0.672 1.5-1.5v0h22c0 0.828 0.672 1.5 1.5 1.5v0h1c0.828 0 1.5-0.672 1.5-1.5s-0.672-1.5-1.5-1.5v0zM4 28c0 0.276-0.224 0.5-0.5 0.5v0h-1c-0.276 0-0.5-0.224-0.5-0.5s0.224-0.5 0.5-0.5v0h1.5zM24.217 25h-12.895c0.636-0.517 1.124-1.193 1.405-1.969l0.010-0.031h8.94c1.056 0.75 1.934 1.471 2.54 2zM19 6c0-0.276 0.224-0.5 0.5-0.5s0.5 0.224 0.5 0.5v0 2.5h-1zM19 11.361v-1.861h1v1.5c0 0.095 0.027 0.184 0.073 0.26l-0.001-0.002 2.928 4.881v3.861h-1v-3.5c-0-0.095-0.027-0.184-0.073-0.26l0.001 0.002zM23 21v1h-10.030c0.019-0.15 0.030-0.324 0.030-0.5s-0.011-0.35-0.032-0.52l0.002 0.020zM16.221 20h-3.483c-0.203-0.563-0.494-1.048-0.86-1.465l0.004 0.005c1.728 0.46 3.172 0.959 4.57 1.546l-0.23-0.086zM5 21.5c0-1.933 1.567-3.5 3.5-3.5s3.5 1.567 3.5 3.5c0 1.933-1.567 3.5-3.5 3.5v0c-1.932-0.003-3.497-1.568-3.5-3.5v-0zM27 27h-22v-1h22zM27 25h-1v-17.293l1-1zM24 8.293l-0.793-0.793 3.793-3.793 0.793 0.793zM29.5 28.5h-1c-0.276 0-0.5-0.224-0.5-0.5v0-0.5h1.5c0.276 0 0.5 0.224 0.5 0.5s-0.224 0.5-0.5 0.5v0z"></path>
<path d="M8.5 24c1.381 0 2.5-1.119 2.5-2.5s-1.119-2.5-2.5-2.5c-1.381 0-2.5 1.119-2.5 2.5v0c0.002 1.38 1.12 2.498 2.5 2.5h0zM8.5 20c0.828 0 1.5 0.672 1.5 1.5s-0.672 1.5-1.5 1.5c-0.828 0-1.5-0.672-1.5-1.5v0c0-0.828 0.672-1.5 1.5-1.5v0z"></path>
</symbol>
<symbol id="icon-heated-pool" viewBox="0 0 32 32">
<title>heated-pool</title>
<path d="M31.489 29.564c-0.863 0-1.654-0.401-2.172-1.101-0.096-0.13-0.249-0.207-0.411-0.207s-0.315 0.077-0.411 0.208c-0.507 0.689-1.318 1.1-2.169 1.1s-1.662-0.412-2.172-1.101c-0.096-0.13-0.249-0.207-0.411-0.207s-0.314 0.077-0.411 0.207c-0.51 0.689-1.321 1.101-2.172 1.101-0.861 0-1.652-0.401-2.169-1.101-0.096-0.13-0.249-0.207-0.411-0.207s-0.314 0.077-0.411 0.207c-0.51 0.689-1.321 1.101-2.172 1.101s-1.662-0.411-2.169-1.1c-0.096-0.13-0.248-0.208-0.41-0.208s-0.315 0.077-0.411 0.206c-0.52 0.7-1.311 1.102-2.172 1.102-0.851 0-1.662-0.411-2.169-1.1-0.096-0.131-0.249-0.208-0.411-0.208s-0.315 0.077-0.411 0.207c-0.509 0.69-1.322 1.101-2.174 1.101-0.849 0-1.66-0.412-2.169-1.101-0.096-0.13-0.249-0.207-0.411-0.207s-0.314 0.077-0.411 0.207c-0.517 0.7-1.308 1.101-2.171 1.101-0.282 0-0.511 0.229-0.511 0.511s0.229 0.511 0.511 0.511c0.965 0 1.893-0.383 2.582-1.048 0.689 0.664 1.617 1.048 2.58 1.048 0.966 0 1.895-0.383 2.584-1.047 0.688 0.664 1.615 1.047 2.581 1.047 0.979 0 1.892-0.375 2.583-1.046 0.688 0.663 1.615 1.046 2.58 1.046s1.892-0.383 2.581-1.046c0.689 0.671 1.602 1.046 2.581 1.046 0.965 0 1.893-0.383 2.582-1.048 0.689 0.664 1.617 1.048 2.582 1.048s1.893-0.383 2.581-1.047c0.689 0.664 1.617 1.047 2.582 1.047 0.282 0 0.511-0.229 0.511-0.511s-0.229-0.511-0.511-0.511z"></path>
<path d="M0.511 26.213c0.965 0 1.893-0.383 2.582-1.048 0.389 0.375 0.854 0.66 1.359 0.838 0.024 0.010 0.050 0.018 0.076 0.025 0.367 0.12 0.752 0.185 1.145 0.185s0.779-0.064 1.146-0.184c0.025-0.006 0.050-0.014 0.074-0.024 0.507-0.177 0.974-0.463 1.364-0.839 0.688 0.664 1.615 1.047 2.581 1.047 0.979 0 1.892-0.375 2.583-1.046 0.389 0.375 0.854 0.66 1.359 0.837 0.025 0.011 0.051 0.019 0.077 0.025 0.366 0.12 0.752 0.184 1.144 0.184s0.777-0.064 1.143-0.184c0.027-0.007 0.054-0.015 0.079-0.026 0.505-0.177 0.97-0.462 1.359-0.837 0.689 0.671 1.602 1.046 2.581 1.046 0.965 0 1.893-0.383 2.582-1.048 0.689 0.664 1.617 1.048 2.582 1.048s1.893-0.383 2.581-1.047c0.689 0.664 1.617 1.047 2.582 1.047 0.282 0 0.511-0.229 0.511-0.511s-0.229-0.511-0.511-0.511c-0.863 0-1.654-0.401-2.172-1.101-0.096-0.13-0.249-0.207-0.411-0.207s-0.315 0.077-0.411 0.208c-0.507 0.689-1.318 1.1-2.169 1.1s-1.662-0.412-2.172-1.101c-0.096-0.13-0.249-0.207-0.411-0.207s-0.314 0.077-0.411 0.207c-0.51 0.689-1.321 1.101-2.172 1.101-0.861 0-1.652-0.401-2.169-1.101-0.096-0.13-0.249-0.207-0.411-0.207s-0.314 0.077-0.411 0.207c-0.179 0.243-0.397 0.45-0.64 0.618v-16.598c0-2.002 1.629-3.632 3.632-3.632s3.632 1.629 3.632 3.632c0 0.845 0.687 1.532 1.532 1.532s1.532-0.687 1.532-1.532c0-3.692-3.003-6.695-6.695-6.695s-6.695 3.003-6.695 6.695v5.56h-7.263v-5.56c0-2.002 1.629-3.632 3.632-3.632 0.874 0 1.719 0.317 2.381 0.893 0.213 0.185 0.535 0.163 0.72-0.050s0.163-0.535-0.050-0.72c-0.847-0.738-1.931-1.145-3.052-1.145-2.566 0-4.653 2.087-4.653 4.653v5.56h-1.021v-5.56c0-3.129 2.545-5.674 5.674-5.674 1.249 0 2.435 0.4 3.43 1.158 0.224 0.171 0.545 0.127 0.716-0.097s0.128-0.545-0.097-0.716c-1.174-0.894-2.574-1.366-4.048-1.366-3.692 0-6.695 3.003-6.695 6.695v16.597c-0.242-0.168-0.459-0.375-0.638-0.617-0.096-0.13-0.249-0.207-0.411-0.207s-0.314 0.077-0.411 0.207c-0.517 0.7-1.309 1.101-2.172 1.101-0.282 0-0.511 0.229-0.511 0.511s0.229 0.511 0.511 0.511zM13.831 24.091c-0.096-0.13-0.248-0.208-0.41-0.208s-0.315 0.077-0.411 0.206c-0.52 0.7-1.311 1.102-2.172 1.102-0.851 0-1.662-0.411-2.169-1.1-0.096-0.131-0.249-0.208-0.411-0.208s-0.315 0.077-0.411 0.207c-0.18 0.244-0.398 0.452-0.642 0.62v-2.869h7.263v2.868c-0.242-0.168-0.459-0.375-0.637-0.617zM14.468 16.734v2.043h-7.263v-2.043h7.263zM6.184 18.777h-1.021v-2.043h1.021v2.043zM5.162 19.798h9.306v1.021h-9.306v-1.021zM15.489 8.11c0-3.129 2.545-5.674 5.674-5.674s5.674 2.545 5.674 5.674c0 0.282-0.229 0.511-0.511 0.511s-0.511-0.229-0.511-0.511c0-2.566-2.087-4.653-4.653-4.653s-4.653 2.087-4.653 4.653v17.031c-0.167 0.033-0.338 0.051-0.511 0.051s-0.344-0.018-0.511-0.051v-17.031zM14.468 14.692v1.021h-9.306v-1.021h9.306zM5.162 21.841h1.021v3.3c-0.167 0.033-0.338 0.050-0.511 0.050s-0.343-0.018-0.511-0.051v-3.3z"></path>
</symbol>
<symbol id="icon-luxury" viewBox="0 0 32 32">
<title>luxury</title>
<path d="M31.993 10.757c0.004-0.022 0.006-0.043 0.007-0.066 0.001-0.026 0.001-0.051-0.002-0.077-0.002-0.022-0.005-0.044-0.011-0.066-0.006-0.026-0.014-0.050-0.023-0.075-0.005-0.013-0.006-0.026-0.012-0.038-0.004-0.009-0.012-0.016-0.017-0.025s-0.007-0.019-0.012-0.028l-5.335-8.535c-0.025-0.039-0.053-0.074-0.086-0.105-0.001-0.001-0.001-0.001-0.002-0.001-0.046-0.043-0.1-0.074-0.158-0.099-0.007-0.003-0.012-0.010-0.020-0.013-0.006-0.002-0.012-0.001-0.018-0.003-0.054-0.018-0.109-0.030-0.168-0.030h-20.271c-0.058 0-0.113 0.012-0.165 0.030-0.006 0.002-0.012 0.001-0.017 0.003-0.008 0.003-0.013 0.009-0.020 0.012-0.055 0.023-0.108 0.053-0.153 0.093-0.003 0.003-0.006 0.004-0.009 0.006-0.033 0.031-0.062 0.067-0.087 0.106l-5.335 8.535c-0.005 0.009-0.007 0.019-0.012 0.028s-0.012 0.016-0.017 0.025c-0.006 0.012-0.007 0.026-0.012 0.038-0.010 0.025-0.018 0.049-0.023 0.075-0.005 0.022-0.009 0.044-0.011 0.066-0.004 0.026-0.004 0.052-0.003 0.077 0.001 0.022 0.003 0.044 0.007 0.066 0.004 0.026 0.011 0.051 0.020 0.076 0.007 0.021 0.014 0.041 0.024 0.061 0.005 0.010 0.006 0.020 0.012 0.030 0.009 0.015 0.021 0.027 0.031 0.042 0.007 0.011 0.012 0.023 0.021 0.034l15.464 19.197c0.001 0.002 0.002 0.003 0.003 0.004l0.003 0.004c0.002 0.002 0.004 0.003 0.006 0.005 0.044 0.053 0.098 0.093 0.157 0.125 0.016 0.009 0.031 0.016 0.047 0.023 0.065 0.027 0.133 0.046 0.204 0.046 0.061 0 0.122-0.011 0.183-0.033 0.009-0.003 0.015-0.011 0.024-0.014 0.027-0.011 0.049-0.029 0.073-0.045 0.041-0.026 0.078-0.052 0.11-0.087 0.007-0.008 0.019-0.012 0.026-0.020l15.47-19.204c0.009-0.011 0.013-0.023 0.021-0.034 0.010-0.014 0.022-0.026 0.031-0.042 0.005-0.010 0.007-0.020 0.012-0.030 0.010-0.020 0.017-0.040 0.024-0.061 0.007-0.025 0.015-0.050 0.019-0.076zM17.121 2.664h8.247l-2.593 6.959-5.654-6.959zM21.814 10.132h-11.628l5.814-7.155 5.814 7.155zM9.187 9.669l-2.56-7.005h8.252l-5.692 7.005zM22.188 11.199l-6.281 16.86-6.161-16.86h12.442zM26.257 3.332l4.25 6.801h-6.783l2.533-6.801zM5.738 3.339l2.482 6.793h-6.727l4.245-6.793zM8.61 11.199l5.782 15.825-12.748-15.825h6.965zM17.279 27.432l6.048-16.233h7.029l-13.077 16.233z"></path>
</symbol>
<symbol id="icon-spa-and-fountain" viewBox="0 0 32 32">
<title>spa-and-fountain</title>
<path d="M22.385 27.286h-12.771c-3.538 0-7.184-2.899-8.129-6.462l-1.177-4.6c-0.201-0.642-0.309-1.325-0.309-2.033 0-3.761 3.060-6.821 6.82-6.821h3.772c0.387 0 0.701 0.314 0.701 0.701s-0.314 0.701-0.701 0.701h-3.772c-2.988 0-5.418 2.431-5.418 5.419 0 0.541 0.080 1.065 0.228 1.558 0.009 0.025 0.018 0.050 0.024 0.077l0.003 0.010c0.698 2.186 2.749 3.773 5.163 3.773h18.359c2.414 0 4.465-1.587 5.163-3.773l0.003-0.010c0.007-0.026 0.015-0.052 0.025-0.077 0.148-0.494 0.228-1.017 0.228-1.558 0-2.988-2.431-5.419-5.418-5.419h-5.249c-0.387 0-0.701-0.314-0.701-0.701s0.314-0.701 0.701-0.701h5.249c3.761 0 6.82 3.060 6.82 6.821 0 0.708-0.108 1.39-0.309 2.033l-1.175 4.595c-0.946 3.569-4.592 6.468-8.13 6.468zM2.608 19.552l0.235 0.919c0.777 2.932 3.879 5.413 6.772 5.413h12.771c2.893 0 5.995-2.482 6.773-5.419l0.234-0.913c-1.161 0.914-2.624 1.46-4.213 1.46h-18.359c-1.589 0-3.052-0.546-4.213-1.46zM15.247 18.020c-0.693 0-1.392-0.28-1.899-0.769-0.281-0.271-0.679-0.423-1.040-0.397-0.259 0.019-0.464 0.123-0.61 0.31-0 0-0.001 0.001-0.001 0.001-0.388 0.5-0.966 0.801-1.627 0.849-0.751 0.054-1.529-0.231-2.081-0.762-0.281-0.271-0.679-0.423-1.040-0.397-0.26 0.019-0.465 0.123-0.611 0.311-0.237 0.306-0.678 0.362-0.983 0.124s-0.362-0.678-0.124-0.983c0.388-0.501 0.963-0.803 1.618-0.85 0.758-0.055 1.547 0.239 2.114 0.786 0.266 0.256 0.651 0.399 1.007 0.373 0.184-0.013 0.441-0.078 0.621-0.31 0.001-0.001 0.001-0.001 0.002-0.002 0.388-0.499 0.962-0.8 1.616-0.848 0.756-0.055 1.547 0.239 2.114 0.786 0.266 0.256 0.652 0.399 1.007 0.373 0.184-0.013 0.44-0.078 0.62-0.31 0.001-0.001 0.001-0.001 0.002-0.002 0.388-0.5 0.962-0.801 1.616-0.848 0.756-0.055 1.547 0.239 2.114 0.786 0.279 0.269 0.287 0.712 0.018 0.991s-0.712 0.287-0.991 0.018c-0.281-0.271-0.679-0.423-1.040-0.397-0.259 0.019-0.465 0.123-0.61 0.31-0 0-0.001 0.001-0.001 0.001-0.387 0.5-0.965 0.801-1.627 0.849-0.061 0.004-0.122 0.007-0.183 0.007zM15.258 14.998c-0.693 0-1.392-0.28-1.899-0.769-0.281-0.271-0.68-0.423-1.040-0.397-0.26 0.019-0.465 0.123-0.611 0.311-0.237 0.306-0.678 0.362-0.983 0.124s-0.362-0.678-0.124-0.983c0.388-0.501 0.963-0.803 1.618-0.85 0.758-0.054 1.547 0.239 2.114 0.786 0.266 0.256 0.651 0.399 1.007 0.373 0.184-0.013 0.44-0.078 0.62-0.309 0-0 0-0 0-0 0.388-0.501 0.963-0.803 1.617-0.85 0.757-0.054 1.547 0.239 2.114 0.786 0.266 0.256 0.653 0.4 1.007 0.373 0.184-0.013 0.44-0.078 0.62-0.31 0.001-0.001 0.001-0.001 0.002-0.002 0.388-0.5 0.962-0.801 1.616-0.848 0.756-0.054 1.547 0.239 2.114 0.786 0.279 0.269 0.287 0.712 0.018 0.991s-0.712 0.287-0.991 0.018c-0.281-0.271-0.679-0.423-1.040-0.397-0.259 0.019-0.465 0.123-0.61 0.31-0 0-0.001 0.001-0.001 0.001-0.387 0.499-0.965 0.801-1.627 0.849-0.752 0.054-1.53-0.231-2.081-0.762-0.281-0.271-0.68-0.423-1.040-0.397-0.259 0.019-0.464 0.123-0.61 0.31-0 0.001-0.001 0.001-0.001 0.001-0.388 0.499-0.966 0.801-1.627 0.849-0.061 0.004-0.122 0.006-0.182 0.006zM16.323 11.429c-0.179 0-0.358-0.068-0.494-0.204-0.274-0.273-0.276-0.717-0.003-0.991 0.445-0.448 0.417-1.551-0.055-2.186-0.001-0.001-0.001-0.001-0.001-0.002-0.564-0.759-0.8-1.849-0.601-2.778 0.081-0.378 0.453-0.62 0.832-0.539s0.62 0.454 0.539 0.832c-0.116 0.543 0.027 1.205 0.356 1.648 0 0 0.001 0.001 0.001 0.001 0.792 1.065 0.956 2.974-0.075 4.011-0.137 0.138-0.317 0.207-0.497 0.207zM13.464 11.429c-0.179 0-0.358-0.068-0.494-0.204-0.274-0.273-0.276-0.717-0.003-0.991 0.445-0.447 0.417-1.549-0.055-2.185-0-0-0.001-0.001-0.001-0.001-0.565-0.76-0.801-1.851-0.602-2.779 0.081-0.378 0.453-0.62 0.832-0.539s0.62 0.454 0.539 0.832c-0.116 0.543 0.027 1.205 0.355 1.648 0 0 0.001 0.001 0.001 0.001 0.792 1.065 0.956 2.974-0.075 4.011-0.137 0.138-0.317 0.207-0.497 0.207z"></path>
</symbol>
<symbol id="icon-YouTube" viewBox="0 0 32 32">
<title>YouTube</title>
<path fill="#003767" style="fill: var(--color1, #003767)" d="M32 16c0 8.837-7.163 16-16 16s-16-7.163-16-16c0-8.837 7.163-16 16-16s16 7.163 16 16z"></path>
<path fill="#fff" style="fill: var(--color2, #fff)" d="M23.467 12.333c0-0.067 0-0.133-0.067-0.2 0 0 0-0.067 0-0.067-0.2-0.6-0.733-1-1.4-1h0.133c0 0-2.6-0.4-6.133-0.4-3.467 0-6.133 0.4-6.133 0.4h0.133c-0.667 0-1.2 0.4-1.4 1 0 0 0 0.067 0 0.067 0 0.067 0 0.133-0.067 0.2-0.067 0.667-0.267 2.067-0.267 3.667s0.2 3 0.267 3.667c0 0.067 0 0.133 0.067 0.2 0 0 0 0.067 0 0.067 0.2 0.6 0.733 1 1.4 1h-0.133c0 0 2.6 0.4 6.133 0.4 3.467 0 6.133-0.4 6.133-0.4h-0.133c0.667 0 1.2-0.4 1.4-1 0 0 0-0.067 0-0.067 0-0.067 0-0.133 0.067-0.2 0.067-0.667 0.267-2.067 0.267-3.667s-0.133-3-0.267-3.667zM18.267 16.333l-3.133 2.267c-0.067 0.067-0.133 0.067-0.2 0.067s-0.133 0-0.2-0.067-0.2-0.2-0.2-0.333v-4.533c0-0.133 0.067-0.267 0.2-0.333s0.267-0.067 0.4 0l3.133 2.267c0.067 0.067 0.133 0.2 0.133 0.333 0.067 0.133 0 0.267-0.133 0.333z"></path>
</symbol>
</defs>
</svg>
